<?xml version="1.0" encoding="UTF-8"?>
<!DOCTYPE svg PUBLIC "-//W3C//DTD SVG 1.1//EN" "http://www.w3.org/Graphics/SVG/1.1/DTD/svg11.dtd">
<svg xmlns="http://www.w3.org/2000/svg" version="1.1" width="500px" height="500px" style="shape-rendering:geometricPrecision; text-rendering:geometricPrecision; image-rendering:optimizeQuality; fill-rule:evenodd; clip-rule:evenodd" xmlns:xlink="http://www.w3.org/1999/xlink">
<g><path style="opacity:1" fill="#e3e1dc" d="M -0.5,-0.5 C 166.167,-0.5 332.833,-0.5 499.5,-0.5C 499.5,166.167 499.5,332.833 499.5,499.5C 332.833,499.5 166.167,499.5 -0.5,499.5C -0.5,332.833 -0.5,166.167 -0.5,-0.5 Z"/></g>
<g><path style="opacity:1" fill="#2e2e2e" d="M 195.5,223.5 C 205.432,221.864 213.598,224.864 220,232.5C 221.908,235.206 222.741,238.206 222.5,241.5C 217.786,241.827 213.12,241.493 208.5,240.5C 205.813,236.686 202.147,235.52 197.5,237C 192.834,241.006 192.334,245.506 196,250.5C 201.05,253.688 205.217,252.855 208.5,248C 213.155,247.501 217.821,247.334 222.5,247.5C 220.468,259.193 213.468,265.193 201.5,265.5C 185.753,263.921 178.587,255.254 180,239.5C 182.685,231.65 187.852,226.316 195.5,223.5 Z"/></g>
<g><path style="opacity:1" fill="#2d2d2d" d="M 275.5,223.5 C 300.159,223.184 308.326,234.517 300,257.5C 290.577,266.273 280.077,267.773 268.5,262C 256.55,250.26 256.55,238.594 268.5,227C 270.925,225.787 273.259,224.621 275.5,223.5 Z"/></g>
<g><path style="opacity:1" fill="#2d2d2d" d="M 115.5,224.5 C 120.214,224.173 124.88,224.507 129.5,225.5C 131.852,233.25 134.352,240.916 137,248.5C 139.483,240.568 141.649,232.568 143.5,224.5C 148.511,224.334 153.511,224.501 158.5,225C 153.74,237.778 149.073,250.612 144.5,263.5C 139.208,264.495 133.875,264.828 128.5,264.5C 124.167,251.167 119.833,237.833 115.5,224.5 Z"/></g>
<g><path style="opacity:1" fill="#2b2b2b" d="M 161.5,224.5 C 166.167,224.5 170.833,224.5 175.5,224.5C 175.5,237.833 175.5,251.167 175.5,264.5C 170.833,264.5 166.167,264.5 161.5,264.5C 161.5,251.167 161.5,237.833 161.5,224.5 Z"/></g>
<g><path style="opacity:1" fill="#2c2c2c" d="M 224.5,224.5 C 235.5,224.5 246.5,224.5 257.5,224.5C 257.5,228.5 257.5,232.5 257.5,236.5C 254.5,236.5 251.5,236.5 248.5,236.5C 248.5,245.833 248.5,255.167 248.5,264.5C 243.833,264.5 239.167,264.5 234.5,264.5C 234.5,255.167 234.5,245.833 234.5,236.5C 231.167,236.5 227.833,236.5 224.5,236.5C 224.5,232.5 224.5,228.5 224.5,224.5 Z"/></g>
<g><path style="opacity:1" fill="#2c2c2c" d="M 308.5,224.5 C 316.174,224.334 323.841,224.5 331.5,225C 341.54,227.239 345.374,233.406 343,243.5C 341.542,245.96 339.709,248.127 337.5,250C 339.961,254.421 342.294,258.921 344.5,263.5C 339.544,264.494 334.544,264.827 329.5,264.5C 328.571,260.716 327.238,257.049 325.5,253.5C 324.675,252.614 323.675,252.281 322.5,252.5C 322.5,256.5 322.5,260.5 322.5,264.5C 317.833,264.5 313.167,264.5 308.5,264.5C 308.5,251.167 308.5,237.833 308.5,224.5 Z"/></g>
<g><path style="opacity:1" fill="#dfddd8" d="M 322.5,235.5 C 324.527,235.338 326.527,235.505 328.5,236C 331.167,238 331.167,240 328.5,242C 326.527,242.495 324.527,242.662 322.5,242.5C 322.5,240.167 322.5,237.833 322.5,235.5 Z"/></g>
<g><path style="opacity:1" fill="#dedcd7" d="M 278.5,236.5 C 287.778,235.376 291.278,239.376 289,248.5C 283.514,254.08 278.514,253.747 274,247.5C 272.776,242.626 274.276,238.959 278.5,236.5 Z"/></g>
<g><path style="opacity:1" fill="#585858" d="M 356.5,255.5 C 362.71,255.041 364.71,257.708 362.5,263.5C 354.387,265.596 352.387,262.929 356.5,255.5 Z"/></g>
<g><path style="opacity:1" fill="#2e2e2e" d="M 329.5,273.5 C 329.5,274.5 329.5,275.5 329.5,276.5C 327.833,276.5 326.167,276.5 324.5,276.5C 324.5,280.833 324.5,285.167 324.5,289.5C 323.5,289.5 322.5,289.5 321.5,289.5C 321.5,285.167 321.5,280.833 321.5,276.5C 319.833,276.5 318.167,276.5 316.5,276.5C 316.5,275.5 316.5,274.5 316.5,273.5C 320.833,273.5 325.167,273.5 329.5,273.5 Z"/></g>
<g><path style="opacity:1" fill="#3d3d3c" d="M 333.5,273.5 C 334.833,273.5 336.167,273.5 337.5,273.5C 337.5,275.5 337.5,277.5 337.5,279.5C 339.5,279.5 341.5,279.5 343.5,279.5C 343.5,277.5 343.5,275.5 343.5,273.5C 344.833,273.5 346.167,273.5 347.5,273.5C 347.5,278.833 347.5,284.167 347.5,289.5C 346.167,289.5 344.833,289.5 343.5,289.5C 343.5,287.5 343.5,285.5 343.5,283.5C 341.5,283.5 339.5,283.5 337.5,283.5C 337.5,285.5 337.5,287.5 337.5,289.5C 336.167,289.5 334.833,289.5 333.5,289.5C 333.5,284.167 333.5,278.833 333.5,273.5 Z"/></g>
<g><path style="opacity:1" fill="#353534" d="M 356.5,273.5 C 357.822,273.33 358.989,273.663 360,274.5C 362.336,279.343 364.169,284.343 365.5,289.5C 363.01,288.575 360.51,287.575 358,286.5C 355.49,287.575 352.99,288.575 350.5,289.5C 351.94,283.954 353.94,278.62 356.5,273.5 Z"/></g>
<g><path style="opacity:1" fill="#3a3a39" d="M 368.5,273.5 C 369.833,273.5 371.167,273.5 372.5,273.5C 372.5,278.833 372.5,284.167 372.5,289.5C 371.167,289.5 369.833,289.5 368.5,289.5C 368.5,284.167 368.5,278.833 368.5,273.5 Z"/></g>
<g><path style="opacity:1" fill="#7c7b78" d="M 329.5,273.5 C 330.434,274.568 330.768,275.901 330.5,277.5C 328.833,277.5 327.167,277.5 325.5,277.5C 325.817,281.702 325.483,285.702 324.5,289.5C 324.5,285.167 324.5,280.833 324.5,276.5C 326.167,276.5 327.833,276.5 329.5,276.5C 329.5,275.5 329.5,274.5 329.5,273.5 Z"/></g>
<g><path style="opacity:1" fill="#828280" d="M 306.5,279.5 C 242.833,279.5 179.167,279.5 115.5,279.5C 115.5,280.5 115.5,281.5 115.5,282.5C 114.566,281.432 114.232,280.099 114.5,278.5C 178.669,278.168 242.669,278.501 306.5,279.5 Z"/></g>
<g><path style="opacity:1" fill="#535453" d="M 306.5,279.5 C 306.5,280.5 306.5,281.5 306.5,282.5C 242.833,282.5 179.167,282.5 115.5,282.5C 115.5,281.5 115.5,280.5 115.5,279.5C 179.167,279.5 242.833,279.5 306.5,279.5 Z"/></g>
<g><path style="opacity:1" fill="#d2d0cc" d="M 357.5,278.5 C 358.931,279.78 359.598,281.447 359.5,283.5C 358.5,283.5 357.5,283.5 356.5,283.5C 356.629,281.784 356.962,280.117 357.5,278.5 Z"/></g>
</svg>
