<svg xmlns="http://www.w3.org/2000/svg" xmlns:xlink="http://www.w3.org/1999/xlink" width="500" height="500" viewBox="0 0 375 375"><clipPath id="a"><path transform="scale(.24)" d="M0 0h1562.5v1562.5H0z" fill-rule="evenodd"/></clipPath><g clip-path="url(#a)"><path d="M0 0h375v375H0z" fill="#fff"/></g><clipPath id="b"><path transform="scale(.24)" d="M0 0h1562.5v1562.5H0z" fill-rule="evenodd"/></clipPath><g clip-path="url(#b)"><path d="M0 0h375v375H0z" fill="#e4e2dd"/></g><clipPath id="c"><path transform="scale(.24)" d="M0 0h1562.5v1562.5H0z" fill-rule="evenodd"/></clipPath><g clip-path="url(#c)"><symbol id="d"><path d="M.493 0h-.26L0 .665h.239L.36.245h.004l.123.42h.238L.493 0z"/></symbol><symbol id="e"><path d="M.233 0H0v.664h.233V0z"/></symbol><symbol id="f"><path d="M.367 0A.4.4 0 0 0 .15.063a.348.348 0 0 0-.131.17A.354.354 0 0 0 0 .35a.354.354 0 0 0 .07.213.338.338 0 0 0 .181.12.41.41 0 0 0 .207.004.35.35 0 0 0 .168-.093.303.303 0 0 0 .058-.086.348.348 0 0 0 .029-.115H.479a.121.121 0 0 1-.024.054.1.1 0 0 1-.041.03A.14.14 0 0 1 .3.47.118.118 0 0 1 .253.425.145.145 0 0 1 .235.35C.235.32.24.294.252.274A.118.118 0 0 1 .3.229.137.137 0 0 1 .413.223a.1.1 0 0 1 .041.03.12.12 0 0 1 .025.054h.233A.35.35 0 0 0 .685.192.301.301 0 0 0 .55.046.387.387 0 0 0 .367 0z"/></symbol><symbol id="g"><path d="M.394 0H.16v.464H0v.2h.554v-.2h-.16V0z"/></symbol><symbol id="h"><path d="M.37 0a.417.417 0 0 0-.223.065A.335.335 0 0 0 0 .35a.327.327 0 0 0 .222.323.413.413 0 0 0 .148.026.41.41 0 0 0 .148-.026A.327.327 0 0 0 .713.49.35.35 0 0 0 .74.35.356.356 0 0 0 .671.14a.335.335 0 0 0-.18-.123A.412.412 0 0 0 .37 0m0 .214A.131.131 0 0 1 .505.35C.504.377.498.4.485.42A.133.133 0 0 1 .37.485.135.135 0 0 1 .303.469.129.129 0 0 1 .253.42.135.135 0 0 1 .235.35.131.131 0 0 1 .37.214z"/></symbol><symbol id="i"><path d="M.232 0H0v.664h.31A.376.376 0 0 0 .456.638.21.21 0 0 0 .554.559.23.23 0 0 0 .59.427.218.218 0 0 0 .577.35a.2.2 0 0 0-.09-.106L.605 0H.36L.278.204H.232V0M.23.48V.364H.31C.326.364.34.37.35.38a.06.06 0 0 1 .015.044c0 .01-.002.019-.007.027A.053.053 0 0 1 .309.48H.231z"/></symbol><use xlink:href="#d" transform="matrix(45.28966 0 0 -45.28966 86.425 198.998)" fill="#2b2b2b"/><use xlink:href="#e" transform="matrix(45.28966 0 0 -45.28966 121.585 198.998)" fill="#2b2b2b"/><use xlink:href="#f" transform="matrix(45.28966 0 0 -45.28966 135.162 199.771)" fill="#2b2b2b"/><use xlink:href="#g" transform="matrix(45.28966 0 0 -45.28966 168.686 198.998)" fill="#2b2b2b"/><use xlink:href="#h" transform="matrix(45.28966 0 0 -45.28966 195.023 199.771)" fill="#2b2b2b"/><use xlink:href="#i" transform="matrix(45.28966 0 0 -45.28966 231.554 198.998)" fill="#2b2b2b"/><symbol id="j"><path d="M.222 0v.551H0V.7h.603V.551H.381V0H.222z"/></symbol><symbol id="k"><path d="M.433 0v.282H.159V0H0v.7h.159V.431h.274V.7h.159V0H.433z"/></symbol><symbol id="l"><path d="m0 0 .278.7h.156L.712 0h-.17L.495.121H.217L.17 0H0m.258.246h.197L.356.502.258.246z"/></symbol><symbol id="m"><path d="M0 0v.7h.159V0H0z"/></symbol><use xlink:href="#j" transform="matrix(16.99081 0 0 -16.99081 237.729 217.597)" fill="#2b2b2b"/><use xlink:href="#k" transform="matrix(16.99081 0 0 -16.99081 250.54 217.597)" fill="#2b2b2b"/><use xlink:href="#l" transform="matrix(16.99081 0 0 -16.99081 262.807 217.597)" fill="#2b2b2b"/><use xlink:href="#m" transform="matrix(16.99081 0 0 -16.99081 277.113 217.597)" fill="#2b2b2b"/><path stroke-width="3" fill="none" stroke="#545454" d="M86.425 211h144"/><symbol id="n"><path d="M.093 0a.093.093 0 0 0-.067.025A.088.088 0 0 0 0 .09c0 .026.009.048.026.065a.09.09 0 0 0 .067.026A.09.09 0 0 0 .16.155.088.088 0 0 0 .186.09.088.088 0 0 0 .16.025.093.093 0 0 0 .093 0z"/></symbol><use xlink:href="#n" transform="matrix(39.9975 0 0 -39.9975 265.797 198.94)" fill="#545454"/></g></svg>